<svg xmlns="http://www.w3.org/2000/svg" data-name="Calque 1" viewBox="0 0 518.79 174.05"><path d="M0 0h40.43C83.11 0 111 22.24 111 72.56s-27.85 73.9-68.51 73.9H0zm38.64 119.73C61.55 119.73 77 107.6 77 72.56S61.55 26.73 38.64 26.73h-5.39v93zM119.95 0h34.37l4.49 77.95c.22 12.58.45 23.59.67 36.84h.9c2-13.25 4.72-24.49 7.19-36.84l9.88-40.88h21.12l9.21 40.88c2.47 12.13 4.94 23.36 7.19 36.84h.9c.22-13.48.45-24.71.9-36.84l4-77.95h32.12L235 146.46h-35.53l-8.54-45.38c-1.8-9.21-3.59-19.09-4-27.85h-.67c-.9 8.76-2 18.64-3.82 27.85l-8.54 45.38h-34.41zm146.91 0h34.59l14.38 51.89 4.94 20.22h.9l4.94-20.22L341 0h34.59v146.46h-27.87v-45.38c0-16.4 2.92-52.12 4.27-67.84h-.67l-11.23 39.09-11.24 35.27h-16.17l-11.46-35.27-10.55-39.09H290c1.57 15.72 4.27 51.44 4.27 67.84v45.38h-27.41z"/><path fill="#ffdc00" d="M416.79 146.46h102v27.59h-102z"/></svg>