<svg xmlns="http://www.w3.org/2000/svg" data-name="Calque 1" viewBox="0 0 16.02 16"><path fill="#fff" d="M14.5 10.29V12a2.5 2.5 0 0 1-2.5 2.5H4A2.5 2.5 0 0 1 1.5 12V4A2.5 2.5 0 0 1 4 1.5h1.73a3.36 3.36 0 0 1-.2-1.5H4a4 4 0 0 0-4 4v8a4 4 0 0 0 4 4h8a4 4 0 0 0 4-4v-1.48a3.32 3.32 0 0 1-1.5-.23z"/><path fill="#fff" d="M15.31 7.3l-2.23-2.22-5.66 5.66a1 1 0 0 1-1.41 0L5.3 10a1 1 0 0 1 0-1.41l2.83-2.81L11 3 8.73.72a.86.86 0 0 1-.2-.28C8.43.19 8.61 0 9 0h6a1 1 0 0 1 .39.08A1 1 0 0 1 16 1v6c0 .57-.3.69-.69.3z"/></svg>