<svg xmlns="http://www.w3.org/2000/svg" id="_x34_f20abd4-884b-4d65-8691-a0822b9c63b7" viewBox="0 0 64 548"><style>.st0{opacity:0.2;} .st1{fill:none;} .st2{fill:#FFFFFF;}</style><g class="st0"><path d="M0 0h64v548H0z" class="st1"/><ellipse cx="19.8" cy="55.9" transform="rotate(-45 19.75 55.93)" class="st2" rx="1.9" ry="2"/><ellipse cx="11.6" cy="56.2" transform="rotate(-45 11.61 56.17)" class="st2" rx="1.9" ry="2"/><ellipse cx="7.2" cy="51.8" transform="rotate(-45 7.25 51.8)" class="st2" rx="1.9" ry="2"/><ellipse cx="11.3" cy="413" class="st2" rx="2" ry="1.9"/><ellipse cx="5.7" cy="418.9" class="st2" rx="2" ry="1.9"/><path d="M0 417v3.7c.9-.2 1.5-.9 1.5-1.8S.9 417.2 0 417z" class="st2"/><ellipse cx="56.3" cy="464.6" transform="rotate(-63 56.33 464.57)" class="st2" rx="1.9" ry="2"/><ellipse cx="53.6" cy="469.9" transform="rotate(-63 53.61 469.91)" class="st2" rx="1.9" ry="2"/><ellipse cx="48.6" cy="467.4" transform="rotate(-63 48.62 467.38)" class="st2" rx="1.9" ry="2"/><ellipse cx="51.3" cy="462" transform="rotate(-63 51.35 462.03)" class="st2" rx="1.9" ry="2"/><ellipse cx="16.2" cy="301.7" transform="rotate(-17.99 16.23 301.74)" class="st2" rx="1.9" ry="2"/><ellipse cx="10.2" cy="303.3" transform="rotate(-18.07 10.27 303.32)" class="st2" rx="1.9" ry="2"/><ellipse cx="8.8" cy="298.2" transform="rotate(-17.99 8.8 298.25)" class="st2" rx="1.9" ry="2"/><ellipse cx="14.5" cy="296.4" transform="rotate(-17.99 14.49 296.4)" class="st2" rx="1.9" ry="2"/><ellipse cx="60.8" cy="24.7" transform="rotate(-18.23 60.76 24.66)" class="st2" rx="2" ry="1.9"/><ellipse cx="58.9" cy="19" transform="rotate(-18.23 58.88 19)" class="st2" rx="2" ry="1.9"/><path d="M64 19.1v-3.8c-.1 0-.3 0-.4.1-1 .3-1.6 1.4-1.3 2.4.3.8.9 1.3 1.7 1.3z" class="st2"/><ellipse cx="39.5" cy="202.9" transform="rotate(-12.99 39.51 202.89)" class="st2" rx="2" ry="1.9"/><path d="M33.1 200.2c1-.2 1.7-1.3 1.4-2.3-.3-1-1.3-1.7-2.3-1.4h-.1c-1 .3-1.6 1.3-1.4 2.3.4 1.1 1.4 1.7 2.4 1.4z" class="st2"/><ellipse cx="28" cy="205.6" transform="rotate(-12.99 28.06 205.54)" class="st2" rx="2" ry="1.9"/><ellipse cx="2.8" cy="125.7" transform="rotate(-12.99 2.81 125.67)" class="st2" rx="1.9" ry="2"/><path d="M5.5 119.4c.3 1 1.3 1.6 2.3 1.4 1-.3 1.6-1.3 1.4-2.3v-.1c-.3-1-1.3-1.6-2.3-1.4-1 .3-1.6 1.3-1.4 2.3v.1zM0 112.3v3.9h.6c1-.3 1.7-1.3 1.4-2.3-.2-1-1-1.7-2-1.6zm62.3 153.2h-.1c-1 .3-1.6 1.3-1.4 2.3.3 1 1.3 1.6 2.3 1.4.3-.1.6-.2.9-.5v-2.8c-.5-.4-1.1-.5-1.7-.4z" class="st2"/><ellipse cx="56.6" cy="275.7" transform="rotate(-12.79 56.51 275.68)" class="st2" rx="1.9" ry="1.9"/><ellipse cx="47.5" cy="353.9" transform="rotate(-24.01 47.42 353.93)" class="st2" rx="2" ry="1.9"/><ellipse cx="49.9" cy="359.4" transform="rotate(-24.01 49.86 359.39)" class="st2" rx="2" ry="1.9"/><ellipse cx="42.4" cy="356.2" transform="rotate(-24.01 42.31 356.2)" class="st2" rx="2" ry="1.9"/><ellipse cx="39.2" cy="364.1" transform="rotate(-24.01 39.12 364.17)" class="st2" rx="2" ry="1.9"/><ellipse cx="33.7" cy="524" transform="rotate(-69 33.68 524.02)" class="st2" rx="1.9" ry="2"/><ellipse cx="31.5" cy="529.6" transform="rotate(-69 31.52 529.61)" class="st2" rx="1.9" ry="2"/><ellipse cx="28.4" cy="522" transform="rotate(-69 28.44 522.01)" class="st2" rx="1.9" ry="2"/><ellipse cx="20.5" cy="525.4" transform="rotate(-69 20.55 525.39)" class="st2" rx="1.9" ry="2"/><ellipse cx="56.7" cy="135.3" transform="rotate(-74 56.7 135.33)" class="st2" rx="1.9" ry="2"/><path d="M51.5 140.1c.3-1-.3-2-1.3-2.3-1-.3-2.1.2-2.4 1.2-.3 1 .2 2.1 1.2 2.4 1.2.3 2.2-.3 2.5-1.3z" class="st2"/></g></svg>