<svg xmlns="http://www.w3.org/2000/svg" id="d7b2fa4f-62d3-442a-900d-f2afa121524d" viewBox="0 0 64 548"><style>.st0{opacity:0.3;} .st1{fill:none;} .st2{fill:#FFFFFF;}</style><g class="st0"><path d="M0 0h64v548H0z" class="st1"/><ellipse cx="44.2" cy="55.9" transform="rotate(-45 44.24 55.93)" class="st2" rx="2" ry="1.9"/><ellipse cx="52.4" cy="56.2" transform="rotate(-45 52.38 56.17)" class="st2" rx="2" ry="1.9"/><ellipse cx="56.7" cy="51.8" transform="rotate(-45 56.74 51.8)" class="st2" rx="2" ry="1.9"/><ellipse cx="52.7" cy="413" class="st2" rx="2" ry="1.9"/><ellipse cx="58.3" cy="418.9" class="st2" rx="2" ry="1.9"/><path d="M62.5 418.9c0 .9.6 1.6 1.5 1.8V417c-.9.2-1.5 1-1.5 1.9z" class="st2"/><ellipse cx="7.7" cy="464.6" transform="rotate(-27 7.66 464.56)" class="st2" rx="2" ry="1.9"/><ellipse cx="10.4" cy="469.9" transform="rotate(-27 10.38 469.9)" class="st2" rx="2" ry="1.9"/><ellipse cx="15.4" cy="467.4" transform="rotate(-27 15.37 467.36)" class="st2" rx="2" ry="1.9"/><ellipse cx="12.6" cy="462" transform="rotate(-27 12.64 462.02)" class="st2" rx="2" ry="1.9"/><ellipse cx="47.8" cy="301.7" transform="rotate(-72 47.8 301.71)" class="st2" rx="2" ry="1.9"/><ellipse cx="53.8" cy="303.3" transform="rotate(-71.93 53.75 303.29)" class="st2" rx="2" ry="1.9"/><ellipse cx="55.2" cy="298.2" transform="rotate(-72 55.23 298.22)" class="st2" rx="2" ry="1.9"/><ellipse cx="49.5" cy="296.4" transform="rotate(-72 49.54 296.37)" class="st2" rx="2" ry="1.9"/><ellipse cx="3.2" cy="24.7" transform="rotate(-71.76 3.24 24.67)" class="st2" rx="1.9" ry="2"/><ellipse cx="5.1" cy="19" transform="rotate(-71.76 5.11 19)" class="st2" rx="1.9" ry="2"/><path d="M1.7 17.9c.3-1-.2-2.1-1.3-2.4-.1 0-.3-.1-.4-.1v3.8c.8-.1 1.4-.6 1.7-1.3z" class="st2"/><ellipse cx="24.5" cy="202.9" transform="rotate(-77 24.51 202.94)" class="st2" rx="1.9" ry="2"/><path d="M30.9 200.2c1 .3 2.1-.3 2.3-1.4.3-1-.3-2.1-1.4-2.3h-.1c-1-.3-2.1.4-2.3 1.4-.2 1 .4 2.1 1.5 2.3z" class="st2"/><ellipse cx="36" cy="205.6" transform="rotate(-77 35.97 205.59)" class="st2" rx="1.9" ry="2"/><ellipse cx="61.2" cy="125.7" transform="rotate(-77 61.2 125.69)" class="st2" rx="2" ry="1.9"/><path d="M58.5 119.3c.3-1-.3-2.1-1.4-2.3-1-.3-2.1.3-2.3 1.4v.1c-.3 1 .3 2.1 1.4 2.3 1 .3 2.1-.3 2.3-1.4v-.1zm3.5-5.5c-.3 1 .4 2.1 1.4 2.3h.6v-3.9c-1 0-1.8.7-2 1.6zM0 265.9v2.8c.2.2.6.4.9.5 1 .3 2.1-.3 2.3-1.4.3-1-.3-2.1-1.4-2.3h-.1c-.6-.1-1.2 0-1.7.4z" class="st2"/><ellipse cx="7.4" cy="275.7" transform="rotate(-77.22 7.43 275.7)" class="st2" rx="1.9" ry="1.9"/><ellipse cx="16.5" cy="353.9" transform="rotate(-66 16.51 353.91)" class="st2" rx="1.9" ry="2"/><ellipse cx="14.1" cy="359.4" transform="rotate(-66 14.07 359.37)" class="st2" rx="1.9" ry="2"/><ellipse cx="21.6" cy="356.2" transform="rotate(-66 21.62 356.18)" class="st2" rx="1.9" ry="2"/><ellipse cx="24.8" cy="364.1" transform="rotate(-66 24.81 364.15)" class="st2" rx="1.9" ry="2"/><ellipse cx="30.3" cy="524" transform="rotate(-21 30.36 523.97)" class="st2" rx="2" ry="1.9"/><ellipse cx="32.5" cy="529.6" transform="rotate(-21 32.52 529.57)" class="st2" rx="2" ry="1.9"/><ellipse cx="35.6" cy="522" transform="rotate(-21 35.6 521.97)" class="st2" rx="2" ry="1.9"/><ellipse cx="43.5" cy="525.4" transform="rotate(-21 43.49 525.35)" class="st2" rx="2" ry="1.9"/><ellipse cx="7.3" cy="135.3" transform="rotate(-15.99 7.31 135.35)" class="st2" rx="2" ry="1.9"/><path d="M12.4 140.1c.3 1 1.4 1.6 2.4 1.3 1-.3 1.6-1.4 1.2-2.4-.3-1-1.4-1.6-2.4-1.2-.9.2-1.4 1.3-1.2 2.3z" class="st2"/></g></svg>