<svg xmlns="http://www.w3.org/2000/svg" data-name="Calque 1" viewBox="0 0 64 548"><g opacity=".2"><path fill="none" d="M0 0h64v548H0z"/><ellipse cx="19.76" cy="492.06" fill="#fff" rx="1.96" ry="1.88" transform="rotate(-45 19.76 492.07)"/><ellipse cx="11.61" cy="491.83" fill="#fff" rx="1.96" ry="1.88" transform="rotate(-45 11.6 491.83)"/><ellipse cx="7.25" cy="496.19" fill="#fff" rx="1.96" ry="1.88" transform="rotate(-45 7.26 496.2)"/><ellipse cx="11.3" cy="135.05" fill="#fff" rx="1.96" ry="1.88"/><ellipse cx="5.7" cy="129.13" fill="#fff" rx="1.96" ry="1.88"/><path fill="#fff" d="M1.5 129.13A1.9 1.9 0 0 0 0 127.3v3.7a1.9 1.9 0 0 0 1.5-1.87z"/><ellipse cx="56.33" cy="83.43" fill="#fff" rx="1.96" ry="1.91" transform="rotate(-27 56.34 83.44)"/><ellipse cx="53.61" cy="78.09" fill="#fff" rx="1.96" ry="1.91" transform="rotate(-27 53.61 78.09)"/><ellipse cx="48.62" cy="80.63" fill="#fff" rx="1.96" ry="1.91" transform="rotate(-27 48.62 80.64)"/><ellipse cx="51.34" cy="85.97" fill="#fff" rx="1.96" ry="1.91" transform="rotate(-27 51.35 85.96)"/><ellipse cx="16.19" cy="246.29" fill="#fff" rx="1.96" ry="1.91" transform="rotate(-72 16.18 246.29)"/><ellipse cx="10.49" cy="244.44" fill="#fff" rx="1.96" ry="1.91" transform="rotate(-71.94 10.54 244.74)"/><ellipse cx="8.76" cy="249.77" fill="#fff" rx="1.96" ry="1.91" transform="rotate(-72 8.76 249.77)"/><ellipse cx="14.46" cy="251.62" fill="#fff" rx="1.96" ry="1.91" transform="rotate(-72 14.46 251.63)"/><ellipse cx="60.75" cy="523.31" fill="#fff" rx="1.91" ry="1.96" transform="rotate(-71.76 60.76 523.32)"/><ellipse cx="58.88" cy="529" fill="#fff" rx="1.91" ry="1.96" transform="rotate(-71.76 58.88 529)"/><path fill="#fff" d="M62.33 530.14a1.93 1.93 0 0 0 1.26 2.42 2 2 0 0 0 .4.09v-3.8a1.9 1.9 0 0 0-1.66 1.29z"/><ellipse cx="39.49" cy="345.05" fill="#fff" rx="1.91" ry="1.96" transform="rotate(-77 39.5 345.06)"/><path fill="#fff" d="M33.12 347.78a1.91 1.91 0 1 0-.86 3.72 1.93 1.93 0 0 0 2.33-1.4 1.93 1.93 0 0 0-1.47-2.32z"/><ellipse cx="28.03" cy="342.41" fill="#fff" rx="1.91" ry="1.96" transform="rotate(-77 28.03 342.41)"/><ellipse cx="2.79" cy="422.3" fill="#fff" rx="1.96" ry="1.91" transform="rotate(-77 2.8 422.3)"/><path fill="#fff" d="M5.51 428.67a1.91 1.91 0 1 0 3.72.86 1.91 1.91 0 1 0-3.72-.86zM2 434.18a1.93 1.93 0 0 0-1.42-2.34 1.84 1.84 0 0 0-.59 0v3.89A1.94 1.94 0 0 0 2 434.18zm62-152.12v-2.82a2 2 0 0 0-.88-.47 1.91 1.91 0 1 0-.86 3.72 2 2 0 0 0 1.74-.43z"/><ellipse cx="58.03" cy="273.41" fill="#fff" rx="1.91" ry="1.96" transform="matrix(.22 -.97 .97 .22 -221.42 268.45)"/><ellipse cx="47.46" cy="194.1" fill="#fff" rx="1.91" ry="1.96" transform="rotate(-66 47.46 194.1)"/><ellipse cx="49.9" cy="188.63" fill="#fff" rx="1.91" ry="1.96" transform="rotate(-66 49.9 188.63)"/><ellipse cx="42.35" cy="191.83" fill="#fff" rx="1.91" ry="1.96" transform="rotate(-66 42.35 191.83)"/><ellipse cx="39.16" cy="183.85" fill="#fff" rx="1.91" ry="1.96" transform="rotate(-66 39.16 183.85)"/><ellipse cx="33.66" cy="23.99" fill="#fff" rx="1.96" ry="1.91" transform="rotate(-21 33.64 23.98)"/><ellipse cx="31.51" cy="18.39" fill="#fff" rx="1.96" ry="1.91" transform="rotate(-21 31.5 18.39)"/><ellipse cx="28.43" cy="25.99" fill="#fff" rx="1.96" ry="1.91" transform="rotate(-21 28.41 26)"/><ellipse cx="20.53" cy="22.61" fill="#fff" rx="1.96" ry="1.91" transform="rotate(-21 20.53 22.61)"/><ellipse cx="56.7" cy="412.66" fill="#fff" rx="1.96" ry="1.91" transform="rotate(-16 56.72 412.67)"/><path fill="#fff" d="M51.55 407.9a1.93 1.93 0 0 0-2.41-1.28 1.91 1.91 0 1 0 2.41 1.3z"/></g></svg>