<?xml version="1.0" encoding="utf-8"?>
<!-- Generator: Adobe Illustrator 21.1.0, SVG Export Plug-In . SVG Version: 6.00 Build 0)  -->
<svg version="1.1" id="Layer_1" xmlns="http://www.w3.org/2000/svg" xmlns:xlink="http://www.w3.org/1999/xlink" x="0px" y="0px"
	 viewBox="0 0 1071.7 459.2" style="enable-background:new 0 0 1071.7 459.2;" xml:space="preserve">
<path d="M800.7,70.8c-11.5-2.1-23.8-2.9-34.9-6.1c-6.9-2-14.6-6.7-21.2-11.6c-13.5-9.9-26.8-16.8-42.4-23.2
	c-7.2-3-17.5-7.5-26.3-6.6c-6.3,0.7-12.9,7.2-18.7,11.1c-12.9,8.8-23.6,15.6-35.9,23.7c-5.7,3.8-14.1,8.6-16.7,13.6
	c-1.5,3-1.4,7.9-3,11.1c-3.8,7.3-11.5,15.5-19.2,15.2c-9-0.4-19.1-16.4-15.6-28.3c1.9-6.5,12.2-9.7,19.2-13.6
	c22-12.2,41.1-24.8,59.6-38.9c11.9-9.1,27.9-15.9,49-16.7c20.4-0.8,48.1-0.9,67.2,0c15.8,0.7,29.1,1.8,42.9,4.5
	c78.9,15.9,158.7,30.1,233.4,51.5c8,2.3,31.3,6.6,33.3,14.2c1.3,4.7-2.5,15.5-4,23.2c-1.8,9.3-3.2,17.6-4.5,24.3
	c-1.3,6.2-7,12.7-10.1,19.2c-9.1,19.2-14.9,41.3-22.7,62.1c-10.3,27.5-21.8,52.5-38.4,75.3c-15.8,21.7-37.2,36-64.7,49
	c-12.2,5.8-26.2,11.7-41.4,15.2c-14.6,3.4-35.2,6.8-52,3c-24.1-5.4-33.3-27.5-41.9-49c-9.2-22.8-14.6-43.7-17.7-73.7
	c-29.1,1.9-35.2,21.8-45,42.4c-4.1,8.8-8.6,17.5-12.6,25.8c-16.7,33.6-34.5,69.9-59.1,94.5c-13.1,13.1-27.9,21.9-47,29.8
	c-36,14.8-73.9,27.7-116.2,37.4c-38.9,8.9-96.4,17.7-132.3-1c-23.1-12-33.5-42.5-43.4-67.7c-4.9-12.5-9-26.6-13.6-41.9
	c-4.1-13.6-7.6-30-16.7-38.9c-11.4-11.2-30-15.3-34.9-32.3c-8.8-3.3-16.9-8.9-24.8-14.1c-47-31.5-93.9-62.4-141.9-92.9
	c-7.9-5-18-10.3-23.2-16.2c-7.7-8.6-12-22.9-18.2-33.8c-2.9-5.1-6.4-9.9-9.6-14.7c-3-4.3-5.8-10.8-11.6-11.6c-3.4,4-1.9,11-2,16.7
	c-0.2,5.9-0.8,12.7-0.5,19.7c0.3,6.5,3.2,11.3,3,16.7c-0.2,5.6-3.1,11.2-9.1,11.1c-7.9-0.1-8.6-10.6-10.6-18.2
	c-2.3-8.7-5.2-16.8-4.5-24.2c0.5-5.7,3.7-13.2,5.1-22.2c2.7-17.3,1.4-33.2,15.7-36.9c8.1-2,18.8,4.2,27.3,7.1
	c8.5,2.9,17.2,4.6,25.3,7.6c9.2,3.4,18.4,9.5,27.3,14.6c27.3,16,50,33.6,76.3,50c35.3,22,70.7,42.7,100.5,67.7
	C357.7,170,458,155,556.7,147.1c45.1-3.6,89.9-1.9,132.3,4c60.7,8.5,108.8-17.1,149.5-34.3c22-9.3,44-17.9,66.7-27.8
	C869.1,82.6,835.7,77,800.7,70.8z M1011.3,119.3c-19.9-4.2-40.3-8-59.1-11.6c-0.6-0.1-1.4-0.7-2-0.5c-12.3,4.2-24.6,6.6-36.4,11.1
	c-22,8.3-43.4,19.2-62.1,32.8c-9.3,6.7-19.6,14.3-24.8,22.2c-17.4,26.9-13,77.9-5,109.6c2.9,11.6,4.4,19.3,9.6,28.8
	c32.6,13.9,74.3-2,96-18.2c16.5-12.3,28.9-29.7,38.9-47C988.1,209.1,1002,164.8,1011.3,119.3z M697.1,188
	c-66.1-20.9-160.5-8.9-229.3,5c-48.4,9.8-102.3,20.7-118.2,62.1c-8.7,22.5-10.9,55.1-7.6,85.4c3.1,28.1,11.6,52.8,21.7,71.2
	c31.8,29.1,108.4,17.1,152.5,4c27.2-8,44.4-15,63.1-23.7c21.3-9.9,50.1-20.9,57.1-44.5c1.9-6.4,1.2-13.4,2-19.7
	c5.3-42.2,21-80.4,46.5-104c5.2-4.8,12.4-7.3,14.7-13.6C702.5,202.5,699.9,194.7,697.1,188z"/>
</svg>
