<svg id="821a4b93-aa2a-4255-82e1-9e8f751deadd" data-name="Calque 1" xmlns="http://www.w3.org/2000/svg" xmlns:xlink="http://www.w3.org/1999/xlink" viewBox="0 0 176 176.01"><defs><clipPath id="4bf98bb7-9917-4708-b163-87d2e93df98e"><circle cx="88" cy="88" r="88" style="fill:none"/></clipPath><linearGradient id="eb7c8b77-a1ad-4373-b9af-7ede6664ff0e" x1="28.34" y1="1003.98" x2="80.84" y2="1034.65" gradientTransform="matrix(1, 0, 0, -1, -7, 1071)" gradientUnits="userSpaceOnUse"><stop offset="0" stop-color="#a52714" stop-opacity="0.6"/><stop offset="0.66" stop-color="#a52714" stop-opacity="0"/></linearGradient><linearGradient id="3e40feda-5c62-43b5-84e3-64e47bef4569" x1="109.87" y1="914.5" x2="51.54" y2="948.67" gradientTransform="matrix(1, 0, 0, -1, -7, 1071)" gradientUnits="userSpaceOnUse"><stop offset="0" stop-color="#055524" stop-opacity="0.4"/><stop offset="0.33" stop-color="#055524" stop-opacity="0"/></linearGradient><clipPath id="6d010e55-7c2a-4ded-93aa-7aeaea44c7ea"><polygon points="0 176 83.77 176 122.65 137.12 122.65 108 53.36 108 0 16.48 0 176" style="fill:none"/></clipPath><linearGradient id="d48d0c19-7d9d-4e72-ba6e-d50bb037062d" x1="120.85" y1="1029.19" x2="135.54" y2="964.87" gradientTransform="matrix(1, 0, 0, -1, -7, 1071)" gradientUnits="userSpaceOnUse"><stop offset="0" stop-color="#ea6100" stop-opacity="0.3"/><stop offset="0.66" stop-color="#ea6100" stop-opacity="0"/></linearGradient><clipPath id="b05bc659-2caa-49f8-ab6d-a756c7de3548"><polygon points="88 48 122.65 108 83.77 176 176 176 176 48 88 48" style="fill:none"/></clipPath><radialGradient id="c1e81916-cd84-4411-aede-1d8e797348e8" cx="667.18" cy="1023.05" r="84.08" gradientTransform="matrix(1, 0, 0, -1, -583, 1071)" gradientUnits="userSpaceOnUse"><stop offset="0" stop-color="#3e2723" stop-opacity="0.2"/><stop offset="1" stop-color="#3e2723" stop-opacity="0"/></radialGradient><clipPath id="3b202590-8d29-4b7c-ba1e-da467a84aab7"><polygon points="13.97 0 13.97 40.34 53.36 108 88 48 176 48 176 0 13.97 0" style="fill:none"/></clipPath><radialGradient id="c4d2378b-2d39-4347-aaf5-a3ebd5e4c369" cx="596.88" cy="1030.48" r="78.04" xlink:href="#c1e81916-cd84-4411-aede-1d8e797348e8"/><radialGradient id="863a584f-5a56-45cb-ac60-67b1e006235d" cx="670.84" cy="982.86" r="87.87" gradientTransform="matrix(1, 0, 0, -1, -583, 1071)" gradientUnits="userSpaceOnUse"><stop offset="0" stop-color="#263238" stop-opacity="0.2"/><stop offset="1" stop-color="#263238" stop-opacity="0"/></radialGradient><radialGradient id="2b2b0d3d-b672-4d57-8c98-f880230ae86a" cx="33.29" cy="1046.99" r="176.75" gradientTransform="matrix(1, 0, 0, -1, -7, 1071)" gradientUnits="userSpaceOnUse"><stop offset="0" stop-color="#fff" stop-opacity="0.1"/><stop offset="1" stop-color="#fff" stop-opacity="0"/></radialGradient></defs><title>resource-chrome</title><g style="clip-path:url(#4bf98bb7-9917-4708-b163-87d2e93df98e)"><path d="M14,0V108H53.36L88,48h88V0Z" style="fill:#db4437"/><path d="M14,0V108H53.36L88,48h88V0Z" style="fill:url(#eb7c8b77-a1ad-4373-b9af-7ede6664ff0e)"/></g><g style="clip-path:url(#4bf98bb7-9917-4708-b163-87d2e93df98e)"><path d="M0,176H83.77l38.88-38.88V108H53.36L0,16.48Z" style="fill:#0f9d58"/><path d="M0,176H83.77l38.88-38.88V108H53.36L0,16.48Z" style="fill:url(#3e40feda-5c62-43b5-84e3-64e47bef4569)"/></g><g style="clip-path:url(#4bf98bb7-9917-4708-b163-87d2e93df98e)"><g style="clip-path:url(#6d010e55-7c2a-4ded-93aa-7aeaea44c7ea)"><path d="M88,48l34.65,60L83.77,176H176V48Z" style="fill:#ffcd40"/><path d="M88,48l34.65,60L83.77,176H176V48Z" style="fill:url(#d48d0c19-7d9d-4e72-ba6e-d50bb037062d)"/></g><g style="clip-path:url(#4bf98bb7-9917-4708-b163-87d2e93df98e)"><path d="M88,48l34.65,60L83.77,176H176V48Z" style="fill:#ffcd40"/><path d="M88,48l34.65,60L83.77,176H176V48Z" style="fill:url(#d48d0c19-7d9d-4e72-ba6e-d50bb037062d)"/></g><g style="clip-path:url(#4bf98bb7-9917-4708-b163-87d2e93df98e)"><g style="clip-path:url(#b05bc659-2caa-49f8-ab6d-a756c7de3548)"><path d="M14,0V108H53.36L88,48h88V0Z" style="fill:#db4437"/><path d="M14,0V108H53.36L88,48h88V0Z" style="fill:url(#eb7c8b77-a1ad-4373-b9af-7ede6664ff0e)"/></g><g style="clip-path:url(#4bf98bb7-9917-4708-b163-87d2e93df98e)"><path d="M88,48V68.95l78.4-21Z" style="fill:url(#c1e81916-cd84-4411-aede-1d8e797348e8)"/></g><g style="clip-path:url(#4bf98bb7-9917-4708-b163-87d2e93df98e)"><g style="clip-path:url(#3b202590-8d29-4b7c-ba1e-da467a84aab7)"><path d="M0,176H83.77l38.88-38.88V108H53.36L0,16.48Z" style="fill:#0f9d58"/><path d="M0,176H83.77l38.88-38.88V108H53.36L0,16.48Z" style="fill:url(#3e40feda-5c62-43b5-84e3-64e47bef4569)"/></g><g style="clip-path:url(#4bf98bb7-9917-4708-b163-87d2e93df98e)"><path d="M14,40.45,71.22,97.69,53.36,108Z" style="fill:url(#c4d2378b-2d39-4347-aaf5-a3ebd5e4c369)"/></g><g style="clip-path:url(#4bf98bb7-9917-4708-b163-87d2e93df98e)"><path d="M83.83,175.89l21-78.2L122.65,108Z" style="fill:url(#863a584f-5a56-45cb-ac60-67b1e006235d)"/></g><g style="clip-path:url(#4bf98bb7-9917-4708-b163-87d2e93df98e)"><circle cx="88" cy="88" r="40" style="fill:#f1f1f1"/><circle cx="88" cy="88" r="32" style="fill:#4285f4"/></g><g style="clip-path:url(#4bf98bb7-9917-4708-b163-87d2e93df98e)"><path d="M88,47A40,40,0,0,0,48,87v1A40,40,0,0,1,88,48h88V47Z" style="fill:#3e2723;opacity:0.20000000298023224"/><path d="M122.6,108a39.94,39.94,0,0,1-69.21,0h0L0,16.48v1L53.36,109h0a39.94,39.94,0,0,0,69.21,0h.05v-1h-.06Z" style="fill:#fff;opacity:0.10000000149011612"/><path d="M89,48c-.17,0-.33,0-.5,0a40,40,0,0,1,0,79.94c.17,0,.33,0,.5,0a40,40,0,1,0,0-80Z" style="fill:#3e2723;opacity:0.10000000149011612;isolation:isolate"/><path d="M123,109.33a39.87,39.87,0,0,0,3.5-32.05A39.56,39.56,0,0,1,122.63,108l0,0L83.77,176h1.16L123,109.37Z" style="fill:#fff;opacity:0.20000000298023224"/></g><g style="clip-path:url(#4bf98bb7-9917-4708-b163-87d2e93df98e)"><path d="M88,1a88,88,0,0,1,88,87.5c0-.17,0-.33,0-.5A88,88,0,0,0,0,88c0,.17,0,.33,0,.5A88,88,0,0,1,88,1Z" style="fill:#fff;opacity:0.20000000298023224"/><path d="M88,175a88,88,0,0,0,88-87.5c0,.17,0,.33,0,.5A88,88,0,0,1,0,88c0-.17,0-.33,0-.5A88,88,0,0,0,88,175Z" style="fill:#3e2723;opacity:0.15000000596046448"/></g><circle cx="88" cy="88" r="88" style="fill:url(#2b2b0d3d-b672-4d57-8c98-f880230ae86a)"/></g></g></g></svg>