<?xml version="1.0" encoding="utf-8"?>
<!-- Generator: Adobe Illustrator 21.1.0, SVG Export Plug-In . SVG Version: 6.00 Build 0)  -->
<svg version="1.1" id="Calque_1" xmlns="http://www.w3.org/2000/svg" xmlns:xlink="http://www.w3.org/1999/xlink" x="0px" y="0px"
	 viewBox="0 0 54 54" style="enable-background:new 0 0 54 54;" xml:space="preserve">
<style type="text/css">
	.st0{fill:#FBFAFA;}
	.st1{filter:url(#Adobe_OpacityMaskFilter);}
	.st2{fill:#FFFFFF;}
	.st3{mask:url(#mask-6);fill:url(#Stroke-5_1_);}
	.st4{filter:url(#Adobe_OpacityMaskFilter_1_);}
	.st5{mask:url(#mask-9);fill:url(#SVGID_1_);}
	.st6{filter:url(#Adobe_OpacityMaskFilter_2_);}
	.st7{mask:url(#mask-12);fill:url(#Stroke-9_3_);}
	.st8{filter:url(#Adobe_OpacityMaskFilter_3_);}
	.st9{mask:url(#mask-15);fill:url(#Combined-Shape_1_);}
	.st10{filter:url(#Adobe_OpacityMaskFilter_4_);}
	.st11{mask:url(#mask-18);}
	.st12{fill:url(#path-20_2_);}
	.st13{filter:url(#Adobe_OpacityMaskFilter_5_);}
	.st14{mask:url(#mask-21);}
	.st15{filter:url(#filter-24);}
	.st16{fill:url(#path-23_2_);fill-opacity:0;}
	.st17{fill:url(#bubble_1_);}
</style>
<filter  filterUnits="objectBoundingBox" height="200%" id="filter-24" width="200%" x="-50%" y="-50%">
	<feOffset  dx="0" dy="0" in="SourceAlpha" result="shadowOffsetOuter1"></feOffset>
	<feGaussianBlur  in="shadowOffsetOuter1" result="shadowBlurOuter1" stdDeviation="12.5"></feGaussianBlur>
	<feComposite  in="shadowBlurOuter1" in2="SourceAlpha" operator="out" result="shadowBlurOuter1"></feComposite>
	
		<feColorMatrix  in="shadowBlurOuter1" result="shadowMatrixOuter1" type="matrix" values="0 0 0 0 0   0 0 0 0 0   0 0 0 0 0  0 0 0 0.652258832 0">
		</feColorMatrix>
	<feOffset  dx="0" dy="4" in="SourceAlpha" result="shadowOffsetOuter2"></feOffset>
	<feGaussianBlur  in="shadowOffsetOuter2" result="shadowBlurOuter2" stdDeviation="4"></feGaussianBlur>
	<feComposite  in="shadowBlurOuter2" in2="SourceAlpha" operator="out" result="shadowBlurOuter2"></feComposite>
	
		<feColorMatrix  in="shadowBlurOuter2" result="shadowMatrixOuter2" type="matrix" values="0 0 0 0 0   0 0 0 0 0   0 0 0 0 0  0 0 0 0.403249547 0">
		</feColorMatrix>
	<feMerge>
		<feMergeNode  in="shadowMatrixOuter1"></feMergeNode>
		<feMergeNode  in="shadowMatrixOuter2"></feMergeNode>
	</feMerge>
</filter>
<g id="chroma-logo">
	<g id="Group-8" transform="translate(8.811927, 8.812087)">
		
			<g id="colors" transform="translate(18.115674, 18.206140) rotate(-360.000000) translate(-18.115674, -18.206140) translate(0.056594, 0.080887)">
		</g>
		
			<g id="colors_1_" transform="translate(18.056594, 18.080887) rotate(-360.000000) translate(-18.056594, -18.080887) translate(0.056594, 0.080887)">
			<ellipse id="Mask" class="st0" cx="17.9" cy="18" rx="17.9" ry="18"/>
			<g id="Group-2" transform="translate(-0.000000, 0.000000)">
				<g id="Mask_1_">
				</g>
			</g>
			<g id="vert" transform="translate(-0.000000, 0.000000)">
				<g id="Mask_2_">
				</g>
				<defs>
					<filter id="Adobe_OpacityMaskFilter" filterUnits="userSpaceOnUse" x="-13.4" y="15.7" width="53.4" height="28.6">
						<feColorMatrix  type="matrix" values="1 0 0 0 0  0 1 0 0 0  0 0 1 0 0  0 0 0 1 0"/>
					</filter>
				</defs>
				<mask maskUnits="userSpaceOnUse" x="-13.4" y="15.7" width="53.4" height="28.6" id="mask-6">
					<g class="st1">
						<ellipse id="path-5" class="st2" cx="17.9" cy="18" rx="17.9" ry="18"/>
					</g>
				</mask>
				
					<linearGradient id="Stroke-5_1_" gradientUnits="userSpaceOnUse" x1="-922.7712" y1="541.1885" x2="-923.0801" y2="540.7282" gradientTransform="matrix(53.3584 0 0 -28.5909 49264.8281 15496.1396)">
					<stop  offset="0" style="stop-color:#59F637;stop-opacity:0.9"/>
					<stop  offset="1" style="stop-color:#5937F6;stop-opacity:0.6"/>
				</linearGradient>
				<path id="Stroke-5" class="st3" d="M-2.8,25.6c13.1,1.7,15-0.8,17.6-5.3c2.6-4.5,4.7-5.7,7.3-3.4s7.7,8.7,17.9,8.7l-1.3,16.5
					l-52,2.2l1.7-15.7C-11.7,28.7-16,23.9-2.8,25.6z"/>
			</g>
			<g id="Stroke-7" transform="translate(-0.000000, 0.000000)">
				<g id="Mask_3_">
				</g>
				<defs>
					<filter id="Adobe_OpacityMaskFilter_1_" filterUnits="userSpaceOnUse" x="-26.4" y="17.5" width="75.7" height="41.6">
						<feColorMatrix  type="matrix" values="1 0 0 0 0  0 1 0 0 0  0 0 1 0 0  0 0 0 1 0"/>
					</filter>
				</defs>
				<mask maskUnits="userSpaceOnUse" x="-26.4" y="17.5" width="75.7" height="41.6" id="mask-9">
					<g class="st4">
						<ellipse id="path-8" class="st2" cx="17.9" cy="18" rx="17.9" ry="18"/>
					</g>
				</mask>
				
					<linearGradient id="SVGID_1_" gradientUnits="userSpaceOnUse" x1="-927.7731" y1="546.6269" x2="-928.2672" y2="546.3785" gradientTransform="matrix(75.7361 0 0 -41.5875 70306.2656 22764.3633)">
					<stop  offset="0" style="stop-color:#F63759;stop-opacity:0.8996"/>
					<stop  offset="1" style="stop-color:#5937F6;stop-opacity:0.7953"/>
				</linearGradient>
				<path class="st5" d="M2.2,29.5c12.3,2.2,13.8-2.8,19.7-9.1c5.9-6.2,11.6-0.7,13.8,1.3c2.2,2,8.6,5.2,10.6,5l3,16.4l-44.5,16
					c0,0-31.2-20.5-31.2-20.7S-10.1,27.2,2.2,29.5z"/>
			</g>
			<g id="Group-2_1_" transform="translate(-0.000000, 0.000000)">
				<g id="Mask_4_">
				</g>
				<defs>
					<filter id="Adobe_OpacityMaskFilter_2_" filterUnits="userSpaceOnUse" x="-10.3" y="21.3" width="55.3" height="35.8">
						<feColorMatrix  type="matrix" values="1 0 0 0 0  0 1 0 0 0  0 0 1 0 0  0 0 0 1 0"/>
					</filter>
				</defs>
				<mask maskUnits="userSpaceOnUse" x="-10.3" y="21.3" width="55.3" height="35.8" id="mask-12">
					<g class="st6">
						<ellipse id="path-11" class="st2" cx="17.9" cy="18" rx="17.9" ry="18"/>
					</g>
				</mask>
				
					<radialGradient id="Stroke-9_3_" cx="-923.869" cy="544.8318" r="0.35" gradientTransform="matrix(55.2771 0 0 -35.7911 51073.1836 19527.3047)" gradientUnits="userSpaceOnUse">
					<stop  offset="0" style="stop-color:#5937F6;stop-opacity:0.9"/>
					<stop  offset="1" style="stop-color:#F63759;stop-opacity:0.6"/>
				</radialGradient>
				<path id="Stroke-9" class="st7" d="M-7.4,32.4c3.1,0.7,5.9-6.5,8.4-9.5c0.5-0.7,2.1-2.6,3.6-0.8c1.5,1.8,9,13,34.1,8.8
					S6,57,6,57l-16.3-29.6C-10.3,27.4-10.5,31.6-7.4,32.4z"/>
			</g>
		</g>
		<g id="light_reflet" transform="translate(0.056594, 0.080887)">
			<g id="Mask_5_">
			</g>
			<defs>
				<filter id="Adobe_OpacityMaskFilter_3_" filterUnits="userSpaceOnUse" x="-26.4" y="17.5" width="75.7" height="41.6">
					<feColorMatrix  type="matrix" values="1 0 0 0 0  0 1 0 0 0  0 0 1 0 0  0 0 0 1 0"/>
				</filter>
			</defs>
			<mask maskUnits="userSpaceOnUse" x="-26.4" y="17.5" width="75.7" height="41.6" id="mask-15">
				<g class="st8">
					<ellipse id="path-14" class="st2" cx="17.9" cy="18" rx="17.9" ry="18"/>
				</g>
			</mask>
			
				<radialGradient id="Combined-Shape_1_" cx="-927.915" cy="546.8519" r="0.2601" gradientTransform="matrix(75.7361 0 0 -41.5875 70306.2656 22764.3633)" gradientUnits="userSpaceOnUse">
				<stop  offset="0" style="stop-color:#FFFFFF;stop-opacity:0.2494"/>
				<stop  offset="1" style="stop-color:#FFFFFF;stop-opacity:0"/>
			</radialGradient>
			<path id="Combined-Shape" class="st9" d="M2.2,29.5c12.3,2.2,13.8-2.8,19.7-9.1c5.9-6.2,11.6-0.7,13.8,1.3c2.2,2,8.6,5.2,10.6,5
				l3,16.4l-44.5,16c0,0-31.2-20.5-31.2-20.7S-10.1,27.2,2.2,29.5z"/>
		</g>
		<g id="shadow_layer" transform="translate(0.056594, 0.080887)">
			<g id="Mask_6_">
			</g>
			<defs>
				<filter id="Adobe_OpacityMaskFilter_4_" filterUnits="userSpaceOnUse" x="-37.9" y="3.4" width="111" height="72">
					<feColorMatrix  type="matrix" values="1 0 0 0 0  0 1 0 0 0  0 0 1 0 0  0 0 0 1 0"/>
				</filter>
			</defs>
			<mask maskUnits="userSpaceOnUse" x="-37.9" y="3.4" width="111" height="72" id="mask-18">
				<g class="st10">
					<ellipse id="path-17" class="st2" cx="17.9" cy="18" rx="17.9" ry="18"/>
				</g>
			</mask>
			<g id="Stroke-9_2_" class="st11">
				<g transform="translate(-26.488308, 17.482751)">
					<g id="Mask_7_">
						
							<linearGradient id="path-20_2_" gradientUnits="userSpaceOnUse" x1="-901.2847" y1="529.1442" x2="-901.7789" y2="528.8957" gradientTransform="matrix(75.7361 0 0 -41.5875 68326.6406 22019.8164)">
							<stop  offset="0" style="stop-color:#D463C8"/>
							<stop  offset="1" style="stop-color:#3C3FF2;stop-opacity:0.7032"/>
						</linearGradient>
						<path id="path-20_1_" class="st12" d="M28.7,12C41,14.2,42.5,9.2,48.4,2.9c5.9-6.2,11.6-0.7,13.8,1.3c2.2,2,8.6,5.2,10.6,5
							l3,16.4l-44.5,16c0,0-31.2-20.5-31.2-20.7C0.1,20.8,16.4,9.7,28.7,12z"/>
					</g>
					<defs>
						<filter id="Adobe_OpacityMaskFilter_5_" filterUnits="userSpaceOnUse" x="-11.5" y="-14.1" width="111" height="72">
							<feColorMatrix  type="matrix" values="1 0 0 0 0  0 1 0 0 0  0 0 1 0 0  0 0 0 1 0"/>
						</filter>
					</defs>
					<mask maskUnits="userSpaceOnUse" x="-11.5" y="-14.1" width="111" height="72" id="mask-21">
						<g class="st13">
							<path id="path-20" class="st2" d="M28.7,12C41,14.2,42.5,9.2,48.4,2.9c5.9-6.2,11.6-0.7,13.8,1.3c2.2,2,8.6,5.2,10.6,5
								l3,16.4l-44.5,16c0,0-31.2-20.5-31.2-20.7C0.1,20.8,16.4,9.7,28.7,12z"/>
						</g>
					</mask>
					<g id="Stroke-9_1_" class="st14">
						<g class="st15">
							<path id="path-23_2_" d="M19.1,14.9c3.1,0.7,5.9-6.5,8.4-9.5c0.5-0.7,2.1-2.6,3.6-0.8c1.5,1.8,9,13,34.1,8.8
								S32.4,39.6,32.4,39.6L16.2,9.9C16.2,9.9,16,14.2,19.1,14.9z"/>
						</g>
						<g>
							
								<radialGradient id="path-23_2_" cx="-897.3807" cy="527.3491" r="0.35" gradientTransform="matrix(55.2771 0 0 -35.7911 49635.4766 18884.0977)" gradientUnits="userSpaceOnUse">
								<stop  offset="0" style="stop-color:#3C3FF2;stop-opacity:0.9006"/>
								<stop  offset="1" style="stop-color:#F23F3C;stop-opacity:0.6007"/>
							</radialGradient>
							<path id="path-23_1_" class="st16" d="M19.1,14.9c3.1,0.7,5.9-6.5,8.4-9.5c0.5-0.7,2.1-2.6,3.6-0.8c1.5,1.8,9,13,34.1,8.8
								S32.4,39.6,32.4,39.6L16.2,9.9C16.2,9.9,16,14.2,19.1,14.9z"/>
						</g>
					</g>
				</g>
			</g>
		</g>
		
			<linearGradient id="bubble_1_" gradientUnits="userSpaceOnUse" x1="-678.0802" y1="610.6813" x2="-678.0802" y2="609.7045" gradientTransform="matrix(2.7266 2.7266 4.0782 -4.0782 -631.7113 4350.8081)">
			<stop  offset="0" style="stop-color:#5937F6"/>
			<stop  offset="1" style="stop-color:#5937F6;stop-opacity:0.4"/>
		</linearGradient>
		<path id="bubble" class="st17" d="M6.1,15.3c1-1,3.1-0.3,3.8-1.1c0.8-0.8,0.8-2,0-2.8s-2-0.7-2.8,0C6.4,12.3,5,16.3,6.1,15.3z"/>
	</g>
</g>
<path class="st2" d="M41.5,0h-29C5.6,0,0,5.6,0,12.5v29C0,48.4,5.6,54,12.5,54h29C48.4,54,54,48.4,54,41.5v-29C54,5.6,48.4,0,41.5,0
	z M27,45c-9.9,0-17.9-8.1-17.9-18S17.1,9,27,9s17.9,8.1,17.9,18S36.9,45,27,45z"/>
</svg>
