<svg xmlns="http://www.w3.org/2000/svg" data-name="Calque 1" viewBox="0 0 51.68 23.89"><path fill="#fff" d="M10.39 8.37h3.12v10.9h-3.12zM7.28 13.22a17 17 0 0 0-2.58-1c-.66-.22-1-.52-1-.91s.44-.78 1.13-.78a4 4 0 0 1 2.55 1l1.45-2A5.45 5.45 0 0 0 4.91 8a4.85 4.85 0 0 0-3.1.93 3 3 0 0 0-1.15 2.44 3.05 3.05 0 0 0 1.94 2.88c.24.12.72.3 1.41.56s1.13.4 1.29.48c.46.22.68.48.68.8 0 .54-.56.87-1.33.87a4.27 4.27 0 0 1-3.12-1.43L0 17.55a5.9 5.9 0 0 0 4.65 2 4.9 4.9 0 0 0 3.24-1A3.19 3.19 0 0 0 9.13 16a3 3 0 0 0-1.85-2.78zM23.49 9.44a4.32 4.32 0 0 0-3.24-1.35 5.38 5.38 0 0 0-4 1.57 5.5 5.5 0 0 0-1.59 4.06 5.52 5.52 0 0 0 1.51 4 5.17 5.17 0 0 0 3.92 1.57A4.24 4.24 0 0 0 23.35 18v.42c0 1.61-1.17 2.8-3.24 2.8A6.67 6.67 0 0 1 16.33 20l-1.19 2.31a8.41 8.41 0 0 0 5.09 1.63 6.26 6.26 0 0 0 4.37-1.55 5.26 5.26 0 0 0 1.73-4.16V8.37h-2.84zm-.89 6.34a2.61 2.61 0 0 1-2 .8 2.7 2.7 0 0 1-2-.82 2.74 2.74 0 0 1-.8-2 2.62 2.62 0 0 1 .8-2 2.8 2.8 0 0 1 4.75 2 2.79 2.79 0 0 1-.75 2.02zM45.77 8.07a5.68 5.68 0 0 0-4.24 1.67 5.55 5.55 0 0 0-1.63 4.08 5.62 5.62 0 0 0 1.63 4.1 6.29 6.29 0 0 0 8.49 0 5.64 5.64 0 0 0 1.65-4.1A5.56 5.56 0 0 0 50 9.74a5.72 5.72 0 0 0-4.23-1.67zm2 7.77a2.78 2.78 0 0 1-3.94 0 2.82 2.82 0 0 1-.8-2 2.71 2.71 0 0 1 .8-2 2.74 2.74 0 0 1 3.94 0 2.73 2.73 0 0 1 .82 2 2.84 2.84 0 0 1-.85 2zM34.58 8.07a3.89 3.89 0 0 0-3.44 1.81V8.37h-3v10.9h3.12V13.5a2.33 2.33 0 0 1 2.35-2.57c1.29 0 2.13.89 2.13 2.49v5.85h3.12V12.6a4.44 4.44 0 0 0-1.23-3.36 4.22 4.22 0 0 0-3.05-1.17zM15.45 0a1.87 1.87 0 0 0-1.85 2.13 1.09 1.09 0 0 1-1.06 1.33h-.51A1.86 1.86 0 1 0 13.87 5a1.09 1.09 0 0 1 1.06-1.33h.51a1.86 1.86 0 1 0 0-3.73z"/></svg>