<svg xmlns="http://www.w3.org/2000/svg" data-name="Calque 1" viewBox="0 0 15.81 11.3"><path fill="#fff" d="M9.72 9.61a4.34 4.34 0 0 1-6-2.85l2.61 1.39A.73.73 0 1 0 7 6.85L3.15 4.79h-.06a.74.74 0 0 0-.91.21v.06L.09 9a.73.73 0 1 0 1.3.69l1.17-2.24a5.66 5.66 0 0 0 5.35 3.85 5.59 5.59 0 0 0 2.36-.51.65.65 0 1 0-.54-1.18zM15.43 1.33a.74.74 0 0 0-1 .31l-1.17 2.21A5.66 5.66 0 0 0 7.91 0a5.59 5.59 0 0 0-2.36.51.65.65 0 1 0 .54 1.19 4.34 4.34 0 0 1 6 2.85l-2.61-1.4a.73.73 0 1 0-.69 1.3l3.87 2.06h.06a.74.74 0 0 0 .92-.28v-.06L15.7 2.3a.74.74 0 0 0-.27-.97z"/></svg>