<?xml version="1.0" standalone="no"?>
<!DOCTYPE svg PUBLIC "-//W3C//DTD SVG 20010904//EN"
 "http://www.w3.org/TR/2001/REC-SVG-20010904/DTD/svg10.dtd">
<svg version="1.0" xmlns="http://www.w3.org/2000/svg"
 width="520.000000pt" height="520.000000pt" viewBox="0 0 520.000000 520.000000"
 preserveAspectRatio="xMidYMid meet">
<metadata>
Created by potrace 1.11, written by Peter Selinger 2001-2013
</metadata>
<g transform="translate(0.000000,520.000000) scale(0.100000,-0.100000)"
fill="#000000" stroke="none">
<path d="M3669 5156 c-2 -2 -29 -7 -59 -11 -30 -3 -63 -8 -72 -11 -9 -3 -25
-7 -36 -9 -211 -40 -488 -197 -649 -366 -82 -86 -105 -115 -158 -194 -89 -134
-170 -319 -190 -434 -3 -19 -7 -37 -9 -40 -21 -34 -28 -367 -11 -476 18 -111
11 -291 -14 -375 -79 -259 -271 -451 -531 -531 -62 -19 -97 -23 -205 -23 -71
0 -155 5 -185 10 -93 15 -364 10 -455 -10 -283 -61 -511 -188 -706 -393 -188
-198 -293 -408 -354 -708 -18 -87 -13 -327 9 -465 22 -137 112 -352 208 -495
72 -108 251 -286 361 -358 166 -110 370 -189 551 -214 106 -15 389 -7 458 13
9 3 25 6 35 8 88 17 155 42 293 108 209 101 409 281 537 483 62 97 153 313
167 396 3 19 12 63 20 99 15 68 16 371 1 420 -14 47 -14 263 0 326 64 296 300
530 600 598 72 16 272 17 325 1 14 -4 93 -9 175 -11 234 -5 409 32 610 130
374 183 637 517 726 926 18 83 23 137 24 255 0 170 -6 232 -35 346 -40 154
-114 315 -207 447 -67 96 -244 269 -338 331 -229 151 -451 221 -726 227 -86 2
-158 2 -160 0z"/>
</g>
</svg>
